<?xml version="1.0" standalone="no"?>
<!DOCTYPE svg PUBLIC "-//W3C//DTD SVG 20010904//EN"
 "http://www.w3.org/TR/2001/REC-SVG-20010904/DTD/svg10.dtd">
<svg version="1.0" xmlns="http://www.w3.org/2000/svg"
 width="279.000000pt" height="236.000000pt" viewBox="0 0 279.000000 236.000000"
 preserveAspectRatio="xMidYMid meet">

<g transform="translate(0.000000,236.000000) scale(0.100000,-0.100000)"
fill="#000000" stroke="none">
<path d="M752 2079 c-13 -10 -39 -21 -58 -25 -38 -7 -40 -11 -20 -33 15 -17
20 -55 17 -133 l-1 -48 -55 0 c-46 0 -60 -5 -86 -28 -25 -23 -33 -38 -36 -79
-11 -109 39 -169 132 -157 35 4 62 1 89 -11 21 -9 40 -14 42 -12 2 2 3 126 2
275 l-3 270 -23 -19z m-68 -311 c19 -27 21 -98 3 -122 -18 -25 -58 -17 -75 14
-14 28 -10 93 8 115 18 22 47 18 64 -7z"/>
<path d="M1029 1840 c-67 -11 -122 -41 -137 -76 -19 -40 -15 -124 8 -161 25
-42 59 -51 250 -63 273 -19 325 -42 385 -171 39 -85 48 -156 42 -329 -5 -179
-23 -245 -87 -314 -61 -65 -104 -77 -333 -87 -220 -9 -262 -17 -298 -55 -20
-22 -24 -35 -24 -92 1 -82 18 -112 83 -144 45 -22 57 -23 277 -23 211 1 240 3
350 27 333 74 531 225 627 479 31 82 32 88 32 249 0 162 -1 166 -34 255 -42
114 -92 187 -179 265 -129 116 -269 176 -499 214 -163 28 -377 39 -463 26z"/>
<path d="M750 1467 c-52 -17 -78 -39 -95 -80 -30 -71 -14 -170 33 -204 95 -70
220 -44 252 53 17 50 8 64 -40 64 -30 0 -42 -5 -46 -17 -19 -58 -28 -73 -54
-81 -31 -11 -42 -6 -59 25 -26 50 4 194 42 201 22 4 46 -15 58 -45 7 -20 16
-23 59 -23 27 0 50 2 50 5 0 4 -7 19 -15 35 -29 56 -119 89 -185 67z"/>
<path d="M660 915 c0 -160 18 -183 134 -171 51 5 66 3 91 -14 17 -11 33 -20
38 -20 4 0 7 70 7 155 l0 155 -45 0 -44 0 -3 -106 c-3 -89 -6 -109 -20 -118
-13 -8 -23 -8 -35 0 -15 9 -18 29 -21 118 l-3 106 -49 0 -50 0 0 -105z"/>
<path d="M505 617 c-35 -16 -55 -53 -55 -103 0 -45 15 -73 46 -84 30 -12 32
-49 4 -75 -11 -10 -20 -26 -20 -37 0 -10 -5 -27 -12 -38 -10 -15 -9 -24 2 -45
20 -37 60 -55 120 -55 61 0 102 19 118 55 16 36 2 60 -45 75 -55 18 -83 38
-83 60 0 16 7 20 30 20 38 0 90 21 110 45 10 12 15 42 16 84 1 36 5 77 9 90 8
24 7 24 -36 16 -53 -9 -50 -9 -119 -1 -37 4 -65 2 -85 -7z m129 -63 c20 -20
20 -73 0 -102 -32 -46 -94 -15 -94 46 0 61 56 95 94 56z m2 -255 c19 -15 18
-45 -2 -53 -29 -11 -89 -6 -112 10 -25 17 -28 34 -9 53 14 15 101 8 123 -10z"/>
</g>
</svg>
